<?xml version="1.0" encoding="iso-8859-1"?>
<!-- Generator: Adobe Illustrator 16.0.0, SVG Export Plug-In . SVG Version: 6.00 Build 0)  -->
<!DOCTYPE svg PUBLIC "-//W3C//DTD SVG 1.1//EN" "http://www.w3.org/Graphics/SVG/1.1/DTD/svg11.dtd">
<svg version="1.1" id="Capa_1" xmlns="http://www.w3.org/2000/svg" xmlns:xlink="http://www.w3.org/1999/xlink" x="0px" y="0px"
	 viewBox="0 0 99.75 99.75" style="enable-background:new 0 0 99.75 99.75;" xml:space="preserve"
	>
<g>
	<path fill="#7abd33" d="M74.125,0h-48.5c-2.209,0-4,1.791-4,4v91.75c0,2.209,1.791,4,4,4h48.5c2.209,0,4-1.791,4-4V4
		C78.125,1.791,76.334,0,74.125,0z M44.447,8.345h10.196c0.383,0,0.69,0.31,0.69,0.691s-0.31,0.691-0.69,0.691H44.447
		c-0.381,0-0.691-0.31-0.691-0.691S44.066,8.345,44.447,8.345z M49.545,91.404c-1.273,0-2.305-1.032-2.305-2.305
		c0-1.273,1.031-2.306,2.305-2.306c1.273,0,2.305,1.032,2.305,2.306C51.85,90.372,50.818,91.404,49.545,91.404z M73.544,83.916
		H26.206V15.834h47.338V83.916z"/>
</g>
<g>
</g>
<g>
</g>
<g>
</g>
<g>
</g>
<g>
</g>
<g>
</g>
<g>
</g>
<g>
</g>
<g>
</g>
<g>
</g>
<g>
</g>
<g>
</g>
<g>
</g>
<g>
</g>
<g>
</g>
</svg>
