<?xml version="1.0" encoding="iso-8859-1"?>
<!-- Generator: Adobe Illustrator 18.0.0, SVG Export Plug-In . SVG Version: 6.00 Build 0)  -->
<!DOCTYPE svg PUBLIC "-//W3C//DTD SVG 1.1//EN" "http://www.w3.org/Graphics/SVG/1.1/DTD/svg11.dtd">
<svg version="1.1" id="Capa_1" xmlns="http://www.w3.org/2000/svg" xmlns:xlink="http://www.w3.org/1999/xlink" x="0px" y="0px"
	 viewBox="0 0 415.482 415.482" style="enable-background:new 0 0 415.482 415.482;" xml:space="preserve">
<g>
	<path fill="#7abd33" d="M190.926,113.352c0-52.638-42.824-95.463-95.463-95.463S0,60.713,0,113.352s42.824,95.463,95.463,95.463
		S190.926,165.99,190.926,113.352z M95.463,193.814C51.096,193.814,15,157.719,15,113.352s36.096-80.463,80.463-80.463
		s80.463,36.095,80.463,80.463S139.83,193.814,95.463,193.814z"/>
	<path fill="#7abd33" d="M95.463,52.889C62.124,52.889,35,80.012,35,113.352s27.124,60.463,60.463,60.463s60.463-27.124,60.463-60.463
		S128.802,52.889,95.463,52.889z M95.463,158.814C70.395,158.814,50,138.42,50,113.352s20.395-45.463,45.463-45.463
		s45.463,20.395,45.463,45.463S120.531,158.814,95.463,158.814z"/>
	<path fill="#7abd33" d="M320.02,241.666c-33.339,0-60.463,27.124-60.463,60.463c0,33.339,27.124,60.463,60.463,60.463s60.463-27.124,60.463-60.463
		C380.482,268.79,353.358,241.666,320.02,241.666z M320.02,347.592c-25.068,0-45.463-20.395-45.463-45.463
		c0-25.068,20.395-45.463,45.463-45.463s45.463,20.395,45.463,45.463C365.482,327.197,345.088,347.592,320.02,347.592z"/>
	<path fill="#7abd33" d="M320.02,206.666c-52.639,0-95.463,42.824-95.463,95.463c0,52.638,42.824,95.463,95.463,95.463s95.463-42.824,95.463-95.463
		C415.482,249.491,372.658,206.666,320.02,206.666z M320.02,382.592c-44.367,0-80.463-36.095-80.463-80.463
		c0-44.367,36.096-80.463,80.463-80.463s80.463,36.095,80.463,80.463C400.482,346.496,364.387,382.592,320.02,382.592z"/>
	<path fill="#7abd33" d="M279.625,29.306c-3.17-5.878-8.438-10.17-14.835-12.085c-13.204-3.954-27.166,3.573-31.12,16.778l-99.755,333.141
		c-1.916,6.397-1.226,13.157,1.943,19.035c3.17,5.878,8.438,10.17,14.835,12.085c2.338,0.7,4.753,1.055,7.178,1.055
		c10.952,0,20.798-7.333,23.942-17.833l99.755-333.141C283.484,41.944,282.794,35.184,279.625,29.306z M267.199,44.038
		l-99.755,333.141c-1.259,4.202-5.195,7.136-9.573,7.136c-0.967,0-1.934-0.143-2.875-0.425c-2.559-0.766-4.666-2.483-5.934-4.834
		c-1.269-2.351-1.544-5.055-0.778-7.614l99.755-333.141c1.297-4.329,5.281-7.133,9.585-7.133c0.947,0,1.91,0.136,2.863,0.421
		c2.559,0.766,4.666,2.483,5.934,4.834C267.689,38.775,267.965,41.479,267.199,44.038z"/>
</g>
<g>
</g>
<g>
</g>
<g>
</g>
<g>
</g>
<g>
</g>
<g>
</g>
<g>
</g>
<g>
</g>
<g>
</g>
<g>
</g>
<g>
</g>
<g>
</g>
<g>
</g>
<g>
</g>
<g>
</g>
</svg>
