<?xml version="1.0" encoding="UTF-8"?>
<svg width="115px" height="40px" viewBox="0 0 115 40" version="1.1" xmlns="http://www.w3.org/2000/svg" xmlns:xlink="http://www.w3.org/1999/xlink">
    <!-- Generator: Sketch 53 (72520) - https://sketchapp.com -->
    <title>IHK_Logo Ulm</title>
    <desc>Created with Sketch.</desc>
    <g id="Symbols" stroke="none" stroke-width="1" fill="none" fill-rule="evenodd">
        <g id="IHK-Logos-/-Ulm">
            <g id="IHK_Logo-Ulm">
                <path d="M39.7100022,40 C44.1934455,27.1218276 44.2047213,12.8947713 39.7108696,0 L0,0.000873629494 L0,40 L39.7100022,40" id="Fill-1" fill="#C4D3D9"></path>
                <path d="M38.9752326,0 C43.5017048,12.8944897 43.4903471,27.1212353 38.974359,39.9991264 L78.974359,40 L78.974359,0.000873610413 L38.9752326,0" id="Fill-2" fill="#004576"></path>
                <path d="M49.2226747,18.829595 L49.2307692,6.81055736 C49.2307692,6.4481436 48.8887765,6.15384615 48.4668505,6.15384615 L46.9248476,6.15384615 C46.5019098,6.15384615 46.1609288,6.4481436 46.1609288,6.81055736 L46.1538462,18.829595 C46.1538462,19.1937553 46.4958389,19.4871795 46.9157413,19.4871795 L48.4597678,19.4871795 C48.880682,19.4871795 49.2226747,19.1937553 49.2226747,18.829595" id="Fill-3" fill="#FFFFFE"></path>
                <path d="M51.2828995,6.81138758 L51.2820513,18.8287648 C51.2820513,19.1920281 51.567894,19.4871795 51.9215926,19.4871795 L53.199827,19.4871795 C53.5526773,19.4871795 53.8385201,19.1920281 53.8385201,18.8287648 L53.8385201,13.8784297 L58.9845374,13.8784297 L58.9887783,18.8287648 C58.9887783,19.1920281 59.2754693,19.4871795 59.6291678,19.4871795 L60.8989202,19.4871795 C61.2509224,19.4871795 61.5376133,19.1920281 61.5376133,18.8287648 L61.5384615,6.81138758 C61.5384615,6.44725109 61.2543152,6.15384615 60.9006166,6.15384615 L59.6206859,6.15384615 C59.2686837,6.15384615 58.9819928,6.44725109 58.9819928,6.81138758 L58.9845374,11.6464565 L53.8385201,11.6464565 L53.8427611,6.81138758 C53.8427611,6.44725109 53.5577665,6.15384615 53.204068,6.15384615 L51.9215926,6.15384615 C51.567894,6.15384615 51.2828995,6.44725109 51.2828995,6.81138758" id="Fill-4" fill="#FFFFFE"></path>
                <path d="M64.6153846,6.81194421 L64.6153846,18.8287937 C64.6153846,19.1920411 64.9100486,19.4871795 65.273788,19.4871795 L66.492665,19.4871795 C66.8581533,19.4871795 67.1528172,19.1920411 67.1528172,18.8287937 L67.1528172,15.6861806 L69.3719778,13.2936383 L72.7968997,18.8287937 C73.019865,19.1920411 73.3337652,19.4871795 73.6975047,19.4871795 L75.5284433,19.4871795 C75.8913084,19.4871795 76.0067258,19.1920411 75.7837604,18.8287937 L71.0586447,11.4119125 L75.1445932,6.81194421 C75.4698603,6.44782372 75.4392572,6.15443166 75.0755177,6.15443166 L73.2882978,6.15443166 C72.9236839,6.15443166 72.7418142,6.11426489 72.1551094,6.69930262 L67.161561,12.1026063 L67.147571,6.81194421 C67.147571,6.44782372 66.8520327,6.15443166 66.4891675,6.15443166 L65.2755368,6.15443166 C64.9100486,6.15443166 64.6153846,6.44782372 64.6153846,6.81194421" id="Fill-5" fill="#FFFFFE"></path>
                <path d="M95.3846154,6.15384615 L93.1301675,6.15384615 L93.1301675,15.2654557 C93.1301675,16.7683928 92.5327908,17.9090528 90.7787542,17.9090528 C89.004805,17.9090528 88.4074282,16.7683928 88.4074282,15.2654557 L88.4074282,6.15384615 L86.1538462,6.15384615 L86.1538462,15.2654557 C86.1538462,18.1559822 88.0412103,19.4871795 90.7787542,19.4871795 C93.6305788,19.4871795 95.3846154,18.1559822 95.3846154,15.2654557 L95.3846154,6.15384615" id="Fill-6" fill="#05000E"></path>
                <polygon id="Fill-7" fill="#05000E" points="98.4615385 19.4871795 100.512821 19.4871795 100.512821 6.15384615 98.4615385 6.15384615"></polygon>
                <path d="M102.564103,19.4871795 L104.756929,19.4871795 L104.756929,15.5823453 C104.756929,14.1612445 105.389663,12.2275597 106.654243,12.2275597 C107.42364,12.2275597 107.622423,12.4932178 107.622423,14.3315382 L107.622423,19.4871795 L109.815249,19.4871795 L109.815249,15.5823453 C109.815249,14.1612445 110.446208,12.2275597 111.711676,12.2275597 C112.48196,12.2275597 112.679856,12.4932178 112.679856,14.3315382 L112.679856,19.4871795 L114.871795,19.4871795 L114.871795,13.2322924 C114.871795,11.1657785 113.706606,10.2564103 112.323999,10.2564103 C110.822476,10.2564103 109.951913,11.3743883 109.676811,12.057266 L109.636877,12.057266 C109.36,10.8064589 108.39182,10.2564103 107.266566,10.2564103 C105.725109,10.2564103 105.054216,11.2790238 104.795976,11.8486562 L104.756929,11.8486562 L104.756929,10.46502 L102.564103,10.46502 L102.564103,19.4871795" id="Fill-8" fill="#05000E"></path>
            </g>
        </g>
    </g>
</svg>